<svg width="90" height="48" viewBox="0 0 90 48" fill="none" xmlns="http://www.w3.org/2000/svg">
<path d="M31.6429 10.7143C31.6429 16.3578 27.0721 20.9286 21.4286 20.9286C15.7851 20.9286 11.2143 16.3578 11.2143 10.7143C11.2143 5.07079 15.7851 0.5 21.4286 0.5C27.0721 0.5 31.6429 5.07078 31.6429 10.7143Z" fill="#034C8C" stroke="#034C8C"/>
<path d="M0.5 37.1428C0.5 35.4144 1.30792 33.871 2.69327 32.5072C4.08297 31.1391 6.02967 29.9781 8.22883 29.0384C12.6293 27.158 17.9196 26.2143 21.4286 26.2143C24.9375 26.2143 30.2278 27.158 34.6283 29.0384C36.8275 29.9781 38.7742 31.1391 40.1639 32.5072C41.5492 33.871 42.3571 35.4144 42.3571 37.1428V46.6428H0.5V37.1428Z" fill="#034C8C" stroke="#034C8C"/>
<path d="M78.7857 10.7143C78.7857 16.3578 74.215 20.9286 68.5715 20.9286C62.928 20.9286 58.3572 16.3578 58.3572 10.7143C58.3572 5.07079 62.928 0.5 68.5715 0.5C74.215 0.5 78.7857 5.07078 78.7857 10.7143Z" fill="#034C8C" stroke="#034C8C"/>
<path d="M53.0714 8.57143C53.0714 13.031 49.4596 16.6429 45 16.6429C40.5404 16.6429 36.9286 13.031 36.9286 8.57143C36.9286 4.11186 40.5404 0.5 45 0.5C49.4596 0.5 53.0714 4.11186 53.0714 8.57143Z" fill="#034C8C" stroke="#034C8C"/>
<path d="M47.6429 37.1428C47.6429 35.4144 48.4508 33.871 49.8362 32.5072C51.2259 31.1391 53.1726 29.9781 55.3717 29.0384C59.7722 27.158 65.0625 26.2143 68.5715 26.2143C72.0804 26.2143 77.3707 27.158 81.7712 29.0384C83.9704 29.9781 85.917 31.1391 87.3068 32.5072C88.6921 33.871 89.5 35.4144 89.5 37.1428V46.6428H47.6429V37.1428Z" fill="#034C8C" stroke="#034C8C"/>
<path d="M36.0817 23.9186C39.085 22.5949 42.6309 21.9286 45 21.9286C47.3688 21.9286 50.9147 22.5949 53.9181 23.9187C53.709 24.0032 53.5011 24.0895 53.2947 24.1777L53.2945 24.1777C50.7526 25.2641 48.1571 26.7429 46.1278 28.7405L46.1277 28.7406C45.7353 29.127 45.3564 29.5411 45 29.9828C44.6435 29.5411 44.2645 29.127 43.872 28.7405L43.8719 28.7405C41.8428 26.7429 39.2471 25.2641 36.7052 24.1777L36.7051 24.1777C36.4987 24.0895 36.2908 24.0032 36.0817 23.9186Z" fill="#034C8C" stroke="#034C8C"/>
</svg>
