<svg width="55" height="76" viewBox="0 0 55 76" fill="none" xmlns="http://www.w3.org/2000/svg">
<path fill-rule="evenodd" clip-rule="evenodd" d="M0.485245 58.6786C0.485245 63.9055 4.77478 68.1429 10.0661 68.1429H31.1439V75.7143L34.9763 73.1905L38.8086 75.7143V68.1429H44.5571C49.8484 68.1429 54.138 63.9055 54.138 58.6786V9.46429C54.138 4.23731 49.8484 0 44.5571 0H10.0661C4.77478 0 0.485245 4.23731 0.485245 9.46429V58.6786ZM38.8086 68.1429H31.1439V63.3443C28.853 62.0352 27.3116 59.5883 27.3116 56.7857C27.3116 52.6042 30.7433 49.2143 34.9763 49.2143C39.2093 49.2143 42.6409 52.6042 42.6409 56.7857C42.6409 59.5883 41.0996 62.0352 38.8086 63.3443V68.1429ZM15.8146 13.25C15.8146 12.2046 16.6725 11.3571 17.7308 11.3571H36.8924C37.9507 11.3571 38.8086 12.2046 38.8086 13.25C38.8086 14.2954 37.9507 15.1429 36.8924 15.1429H17.7308C16.6725 15.1429 15.8146 14.2954 15.8146 13.25ZM10.0661 22.7143C9.00779 22.7143 8.14992 23.5617 8.14992 24.6071C8.14992 25.6526 9.00779 26.5 10.0661 26.5H44.5571C45.6154 26.5 46.4733 25.6526 46.4733 24.6071C46.4733 23.5617 45.6154 22.7143 44.5571 22.7143H10.0661ZM8.14992 32.1786C8.14992 31.1331 9.00779 30.2857 10.0661 30.2857H44.5571C45.6154 30.2857 46.4733 31.1331 46.4733 32.1786C46.4733 33.224 45.6154 34.0714 44.5571 34.0714H10.0661C9.00779 34.0714 8.14992 33.224 8.14992 32.1786ZM10.0661 37.8571C9.00779 37.8571 8.14992 38.7046 8.14992 39.75C8.14992 40.7954 9.00779 41.6429 10.0661 41.6429H44.5571C45.6154 41.6429 46.4733 40.7954 46.4733 39.75C46.4733 38.7046 45.6154 37.8571 44.5571 37.8571H10.0661Z" fill="#034C8C"/>
</svg>
