<svg width="63" height="61" viewBox="0 0 63 61" fill="none" xmlns="http://www.w3.org/2000/svg">
<path d="M15.2024 13.7604L15.2024 13.7604C16.7565 12.2248 19.5821 11.1466 22.6467 11.0288C25.6946 10.9117 28.7124 11.7544 30.7082 13.7264C31.1821 14.1946 31.9531 14.1946 32.4269 13.7265L32.4269 13.7265C32.8976 13.2617 32.8976 12.5106 32.4272 12.0458C29.8127 9.46262 26.0491 8.51326 22.5519 8.64766C19.0715 8.78146 15.5904 9.9981 13.4833 12.0798L15.2024 13.7604ZM15.2024 13.7604C14.7285 14.2287 13.9575 14.2287 13.4836 13.7605L13.4835 13.7604M15.2024 13.7604L13.4835 13.7604M13.4835 13.7604C13.013 13.2958 13.0128 12.5448 13.4833 12.0798L13.4835 13.7604Z" fill="#034C8C" stroke="#034C8C"/>
<path d="M39.7302 35.8458L38.8305 36.8979L40.1948 36.6636L43.7236 36.0574L56.0465 48.2304L49.6618 54.5374L37.3339 42.3594L37.9461 38.8816L38.1832 37.535L37.1333 38.411C33.3447 41.5725 28.4474 43.4785 23.0975 43.4785C11.074 43.4785 1.33746 33.8517 1.33746 21.9892C1.33746 10.1268 11.074 0.5 23.0975 0.5C35.121 0.5 44.8576 10.1268 44.8576 21.9892C44.8576 27.2691 42.93 32.104 39.7302 35.8458ZM23.0975 39.404C32.8246 39.404 40.7206 31.6128 40.7206 21.9892C40.7206 12.3656 32.8246 4.57444 23.0975 4.57444C13.3704 4.57444 5.4744 12.3656 5.4744 21.9892C5.4744 31.6128 13.3704 39.404 23.0975 39.404Z" fill="#034C8C" stroke="#034C8C"/>
<path d="M61.1495 53.2715L61.1495 53.2715C62.2577 54.3662 62.2577 56.1384 61.1495 57.2331L58.7841 59.5697C57.6726 60.6678 55.8679 60.6678 54.7563 59.5697L54.7563 59.5697L52.7949 57.6323L59.1795 51.3253L61.1495 53.2715Z" fill="#034C8C" stroke="#034C8C"/>
</svg>
